<?xml version="1.0" standalone="no"?>
<!DOCTYPE svg PUBLIC "-//W3C//DTD SVG 20010904//EN"
 "http://www.w3.org/TR/2001/REC-SVG-20010904/DTD/svg10.dtd">
<svg version="1.0" xmlns="http://www.w3.org/2000/svg"
 width="1280.000000pt" height="1280.000000pt" viewBox="0 0 1280.000000 1280.000000"
 preserveAspectRatio="xMidYMid meet">
<metadata>
Created by potrace 1.15, written by Peter Selinger 2001-2017
</metadata>
<g transform="translate(0.000000,1280.000000) scale(0.100000,-0.100000)"
fill="#8e0404" stroke="none">
<path d="M6010 12789 c-2387 -151 -4498 -1617 -5461 -3794 -567 -1282 -699
-2724 -373 -4085 462 -1931 1818 -3560 3629 -4361 336 -148 748 -288 1087
-368 1613 -384 3265 -148 4693 669 810 464 1532 1126 2072 1900 870 1248 1269
2808 1107 4325 -162 1520 -847 2903 -1964 3970 -737 704 -1647 1223 -2644
1509 -671 193 -1457 279 -2146 235z m970 -593 c1232 -138 2290 -591 3209
-1372 151 -129 482 -458 608 -604 334 -389 593 -781 823 -1245 320 -647 494
-1252 577 -2000 25 -227 25 -909 0 -1140 -107 -979 -411 -1841 -924 -2625
-929 -1416 -2438 -2364 -4113 -2584 -280 -37 -360 -41 -755 -41 -417 0 -487 4
-820 51 -842 117 -1661 425 -2370 889 -1378 901 -2322 2363 -2569 3975 -54
351 -61 456 -61 895 0 418 7 529 51 835 120 841 441 1684 907 2385 770 1155
1910 1992 3249 2384 346 101 778 179 1173 211 176 14 845 5 1015 -14z"/>
<path d="M7440 10035 c-748 -103 -1392 -554 -1740 -1218 -238 -454 -318 -1004
-219 -1515 70 -363 234 -717 463 -1001 l68 -84 -116 -116 -116 -116 -43 43
c-51 50 -98 63 -143 39 -16 -9 -559 -546 -1206 -1194 l-1178 -1178 0 -43 c0
-24 6 -55 14 -70 16 -29 315 -329 356 -356 13 -9 45 -16 70 -16 l45 0 1178
1178 c648 647 1185 1190 1194 1206 24 45 11 92 -39 143 l-43 43 116 116 116
116 84 -68 c331 -267 766 -446 1201 -493 122 -14 365 -14 483 -1 526 59 989
274 1364 635 196 189 343 391 466 640 115 233 176 432 215 692 24 167 27 463
6 623 -67 504 -286 955 -635 1314 -200 204 -396 346 -641 465 -235 114 -465
183 -713 216 -144 18 -471 19 -607 0z m523 -590 c879 -115 1530 -883 1494
-1760 -15 -340 -104 -613 -292 -895 -341 -510 -952 -806 -1554 -751 -432 38
-793 210 -1092 517 -151 157 -229 269 -323 464 -256 536 -209 1172 124 1672
363 545 1000 837 1643 753z"/>
</g>
</svg>
